<?xml version="1.0" encoding="utf-8"?>
<!-- Generator: Adobe Illustrator 15.1.0, SVG Export Plug-In . SVG Version: 6.00 Build 0)  -->
<!DOCTYPE svg PUBLIC "-//W3C//DTD SVG 1.1//EN" "http://www.w3.org/Graphics/SVG/1.1/DTD/svg11.dtd">
<svg version="1.1" id="Layer_1" xmlns="http://www.w3.org/2000/svg" xmlns:xlink="http://www.w3.org/1999/xlink" x="0px" y="0px"
	 width="400px" height="400px" viewBox="0 0 400 400" style="enable-background:new 0 0 400 400;" xml:space="preserve">
<g>
	
		<image style="overflow:visible;opacity:0.75;" width="239" height="284" xlink:href="8AF76C6F.png"  transform="matrix(1 0 0 1 87 -14)">
	</image>
	<g>
		<g>
			<path style="fill:#1ED760;" d="M258.6,120.8c0,3.1-0.1,6.3-0.3,9.4c-0.1,1.5-0.3,3.1-0.4,4.6c-0.5,4.9,0.5-2.7-0.3,2.2
				c-1,6.3-2.6,12.5-4.6,18.6c-0.4,1.4-0.9,2.7-1.4,4c-0.1,0.2-1.9,4.5-0.7,1.7c-1.1,2.5-2.3,5-3.6,7.5c-1.3,2.4-2.7,4.7-4.1,7
				c-0.7,1.1-1.5,2.2-2.2,3.3c-1,1.4-1,1.4,0,0.1c-0.5,0.7-1.1,1.4-1.6,2c-3.2,3.9-6.8,7.5-10.7,10.8c-3.2,2.7,2.5-1.8-0.8,0.6
				c-1,0.7-2,1.4-3,2.1c-2.4,1.5-4.8,2.9-7.4,4.1c-3.6,1.8,3.1-1.2-0.7,0.3c-1.1,0.4-2.2,0.8-3.4,1.2c-2.3,0.7-4.6,1.3-6.9,1.7
				c-0.7,0.1-4.7,0.6-0.7,0.2c-1.2,0.1-2.4,0.2-3.6,0.3c-2.8,0.1-5.6,0-8.5-0.3c-4-0.4,3.1,0.5-0.9-0.2c-1.2-0.2-2.3-0.5-3.5-0.8
				c-2.3-0.6-4.6-1.3-6.8-2.2c-3.7-1.4,2.8,1.3-0.8-0.4c-1.1-0.5-2.1-1.1-3.2-1.6c-2.5-1.3-4.9-2.9-7.2-4.5
				c-3.3-2.4,2.3,1.9-0.9-0.7c-1-0.8-1.9-1.6-2.8-2.5c-1.9-1.7-3.7-3.5-5.4-5.4c-0.9-0.9-1.7-1.9-2.5-2.9c-2.8-3.3,1.8,2.4-0.8-1
				c-1.9-2.5-3.5-5.1-5.1-7.8c-1.4-2.3-2.7-4.8-3.9-7.2c-0.6-1.2-1.2-2.5-1.8-3.8c1.4,3.1-0.5-1.2-0.6-1.5c-2.3-5.9-3.9-12-5.2-18.2
				c-0.3-1.5-0.6-3-0.8-4.4c0-0.1-0.7-5-0.3-2c-0.4-3.1-0.6-6.2-0.7-9.3c-0.3-6.8,0.1-13.5,0.9-20.2c-0.2,1.3-0.2,1.1,0.1-0.7
				c0.2-1.5,0.5-3,0.8-4.4c0.6-2.9,1.3-5.8,2.1-8.6c0.6-2.3,1.4-4.6,2.2-6.9c0.5-1.3,1-2.7,1.5-4c1.7-4.3-1.2,2.5,0.7-1.6
				c2-4.6,4.5-9,7.2-13.2c0.7-1.1,1.5-2.2,2.2-3.3c2.5-3.6-1.8,2.3,0.8-1.1c1.6-2,3.3-3.9,5.1-5.8c1.4-1.5,3-3,4.6-4.4
				c0.9-0.8,1.9-1.6,2.9-2.4c-2.8,2.3,0.4-0.2,0.9-0.5c1.7-1.2,3.4-2.2,5.1-3.2c1-0.6,2.1-1.1,3.2-1.7c0.6-0.3,4.3-1.9,0.6-0.4
				c4-1.7,8.3-2.8,12.6-3.6c4-0.7-3.3,0.3,0.8-0.1c1.2-0.1,2.4-0.2,3.6-0.2c2.4-0.1,4.8,0.1,7.2,0.3c1.7,0.2,1.6,0.2-0.3,0
				c1.2,0.2,2.3,0.4,3.5,0.7c2.3,0.5,4.6,1.2,6.8,2c0.7,0.3,1.5,0.6,2.2,0.9c-3.4-1.3,0.3,0.2,0.8,0.5c2.2,1.1,4.3,2.3,6.3,3.6
				c0.7,0.5,5.6,4.1,2.9,2c2,1.5,3.8,3.2,5.6,5c1.8,1.8,3.6,3.7,5.2,5.6c0.3,0.3,3,3.7,0.9,1c0.8,1,1.6,2.1,2.3,3.2
				c2.9,4.1,5.3,8.4,7.5,12.9c0.4,0.8,0.8,1.7,1.2,2.5c1.9,4.2-1.1-2.9,0.6,1.5c1.1,2.7,2,5.4,2.8,8.1c1.6,5.2,2.8,10.5,3.7,15.8
				c0,0.1,0.7,5,0.3,2c0.2,1.5,0.3,3.1,0.4,4.6C258.5,114.5,258.6,117.7,258.6,120.8c0,8.2,6.6,15.1,14.9,15.1
				c8.1,0.1,15.2-6.7,15.1-14.9c-0.3-48.9-27.8-103.8-80.7-111c-51-6.9-88,41.6-95.6,86.9c-8.4,49.7,10.3,109.4,59.9,130.1
				c21.3,8.9,45.7,6.1,65.5-5.3c21.4-12.4,35.6-34.1,43.7-56.9c5-13.9,7.1-29.1,7.2-43.8C288.7,101.6,258.7,101.5,258.6,120.8z"/>
		</g>
	</g>
</g>
<g>
	
		<image style="overflow:visible;opacity:0.75;" width="211" height="211" xlink:href="8AF76C6D.png"  transform="matrix(1 0 0 1 102 194)">
	</image>
	<g>
		<circle style="fill:#1ED760;" cx="200.5" cy="292.5" r="75.1"/>
	</g>
</g>
<g>
	<g>
		<path d="M171.3,340.8c26.2,2.7,52.7-3.1,72.1-21.7c8.2-7.8,15.5-18.4,18.8-29.4c2.8-9.3-11.7-13.2-14.5-4
			c-0.2,0.7-0.4,1.3-0.7,1.9c-0.9,2.3,0.6-1.2-0.4,1c-0.5,1.1-1,2.2-1.6,3.2c-3.4,6.6-6.3,10.5-11.2,15.5
			c-16.1,16.5-39.8,20.7-62.5,18.3C161.8,324.8,161.8,339.9,171.3,340.8L171.3,340.8z"/>
	</g>
</g>
<g>
	<g>
		<path d="M162.8,314.7c23.7,2.3,47.9-2.7,65.8-19.1c7.3-6.7,13.9-15.9,17-25.5c2.9-9.3-11.6-13.2-14.5-4c-0.2,0.5-0.4,1.1-0.6,1.6
			c0.4-1.1,0.4-0.9-0.3,0.6c-0.4,0.9-0.9,1.8-1.4,2.7c-3.2,5.9-5.4,8.8-10.3,13.5c-14.4,13.9-35.7,17.2-55.6,15.2
			C153.2,298.8,153.2,313.8,162.8,314.7L162.8,314.7z"/>
	</g>
</g>
<g>
	<g>
		<path d="M162.8,286.1c23.2,1.8,53.2-5.3,62.3-29.7c3.4-9.1-11.1-12.9-14.5-4c-0.3,0.7,1.1-2.4,0.2-0.6c-0.5,0.9-1,1.9-1.5,2.7
			c-0.3,0.5-0.7,1.1-1.1,1.6c-0.5,0.6-0.4,0.6,0.2-0.2c-0.4,0.5-0.7,0.9-1.1,1.4c-1.5,1.8-3.2,3.4-4.9,4.9c-3.1,2.6-9.1,5.5-14,7
			c-8.3,2.5-16.9,2.5-25.5,1.9C153.2,270.3,153.2,285.3,162.8,286.1L162.8,286.1z"/>
	</g>
</g>
<ellipse cx="199.8" cy="222.9" rx="2" ry="2.5"/>
</svg>
